<?xml version="1.0" encoding="UTF-8" standalone="no"?>
<!-- Generator: Adobe Illustrator 19.0.0, SVG Export Plug-In . SVG Version: 6.00 Build 0)  -->

<svg
   xmlns:dc="http://purl.org/dc/elements/1.1/"
   xmlns:cc="http://creativecommons.org/ns#"
   xmlns:rdf="http://www.w3.org/1999/02/22-rdf-syntax-ns#"
   xmlns:svg="http://www.w3.org/2000/svg"
   xmlns="http://www.w3.org/2000/svg"
   xmlns:sodipodi="http://sodipodi.sourceforge.net/DTD/sodipodi-0.dtd"
   xmlns:inkscape="http://www.inkscape.org/namespaces/inkscape"
   version="1.1"
   id="Layer_1"
   x="0px"
   y="0px"
   viewBox="0 0 1000 1000"
   style="enable-background:new 0 0 1000 1000;"
   xml:space="preserve"
   sodipodi:docname="hair fore twintail1 Auburn.svg"
   inkscape:version="0.92.1 r15371"><metadata
     id="metadata4517"><rdf:RDF><cc:Work
         rdf:about=""><dc:format>image/svg+xml</dc:format><dc:type
           rdf:resource="http://purl.org/dc/dcmitype/StillImage" /><dc:title></dc:title></cc:Work></rdf:RDF></metadata><defs
     id="defs4515"><inkscape:path-effect
       effect="taper_stroke"
       id="path-effect4505"
       is_visible="true"
       stroke_width="0.4"
       attach_start="0.2"
       end_offset="0.2"
       smoothing="0.5"
       jointype="extrapolated"
       miter_limit="100" /><inkscape:path-effect
       effect="taper_stroke"
       id="path-effect6797"
       is_visible="true"
       stroke_width="0.4"
       attach_start="0.2"
       end_offset="0.2"
       smoothing="0.5"
       jointype="extrapolated"
       miter_limit="100" /><inkscape:path-effect
       effect="taper_stroke"
       id="path-effect5077"
       is_visible="true"
       stroke_width="0.5"
       attach_start="1e-007"
       end_offset="0.3"
       smoothing="0.5"
       jointype="extrapolated"
       miter_limit="100" /></defs><sodipodi:namedview
     pagecolor="#ffffff"
     bordercolor="#666666"
     borderopacity="1"
     objecttolerance="10"
     gridtolerance="10"
     guidetolerance="10"
     inkscape:pageopacity="0"
     inkscape:pageshadow="2"
     inkscape:window-width="1920"
     inkscape:window-height="1001"
     id="namedview4513"
     showgrid="false"
     inkscape:zoom="2.6700352"
     inkscape:cx="503.08551"
     inkscape:cy="878.97999"
     inkscape:window-x="-9"
     inkscape:window-y="-9"
     inkscape:window-maximized="1"
     inkscape:current-layer="Layer_1" /><style
     type="text/css"
     id="style4507">
	.st0{fill:#010101;}
	.st1{fill:#F6E0E8;}
</style><path
     style="fill:#7e543e;fill-opacity:1;stroke:#000000;stroke-width:0.37799999;stroke-linecap:butt;stroke-linejoin:round;stroke-miterlimit:4;stroke-dasharray:none;stroke-opacity:1"
     d="m 529.99607,71.860411 c -0.47581,-0.0031 -0.95158,0.0095 -1.42383,0.03906 -20.97198,1.312352 -31.80962,6.687295 -37.5957,13.544922 -4.62666,6.620667 -21.27622,22.395147 -20.74219,49.402347 -1.30671,8.5113 10.63797,13.55829 6.91992,27.80859 -4.02915,15.44265 -7.65355,16.80815 -6.18945,28.40821 0.1035,0.82007 9.13261,14.19485 10.1875,27.33398 0.67444,8.40052 -1.92773,18.125 -1.92773,18.125 16.31218,-14.46056 17.79663,-25.32801 21.17187,-31.21289 2.02798,-10.22583 -12.6306,-29.84339 -16.75976,-41.14648 -0.93619,-2.63209 -1.49896,-13.98559 -1.14649,-21.9043 0.3976,-8.93273 -1.45867,-22.61467 1.07813,-31.98438 7.93721,-11.607851 18.17674,-14.421504 34.94931,-14.969252 7.05905,-0.23053 15.96359,5.087002 17.93822,8.518942 0.18397,0.31973 0.29079,0.58336 0.30746,0.77732 L 547.1113,85.141658 c -2.60677,-9.448631 -9.97801,-13.234498 -17.11523,-13.28125 z"
     id="path5079-2"
     inkscape:connector-curvature="0"
     sodipodi:nodetypes="csccscscccscssccsc"
     inkscape:label="Left tail and top merge" /><path
     style="fill:#7e543e;fill-opacity:1;stroke:#000000;stroke-width:0.37795275;stroke-linecap:butt;stroke-linejoin:round;stroke-miterlimit:4;stroke-dasharray:none;stroke-opacity:0.94117647"
     d="m 536.76333,104.60148 c 10.7525,7.12052 16.54661,22.98262 18.15952,38.12707 0.83944,7.88198 1.37841,19.53605 0.44222,22.16814 -4.12916,11.30309 -18.78751,30.92056 -16.75953,41.14639 3.37524,5.88488 4.85886,16.75222 21.17104,31.21278 0,0 -2.60277,-9.72378 -1.92833,-18.1243 1.05489,-13.13913 10.08438,-26.51481 10.18788,-27.33488 1.4641,-11.60007 -2.1605,-12.96581 -6.18965,-28.40846 -3.71805,-14.2503 4.78361,-19.03155 3.4769,-27.54285 -4.0882,-26.62859 -15.56525,-46.572878 -18.21259,-50.703868 z"
     id="path5079-2-1"
     inkscape:connector-curvature="0"
     sodipodi:nodetypes="cscccsssscc"
     inkscape:label="right tail" /><path
     style="fill:#3f4040;fill-opacity:1;stroke:none;stroke-width:0.52634007px;stroke-linecap:butt;stroke-linejoin:miter;stroke-opacity:1"
     d="m 555.50686,154.48204 c 0.14299,0.4286 0.23406,0.9131 0.15526,1.30398 l 5.45713,-0.13717 c 0.0816,-0.45423 0.0782,-0.82055 0.0646,-1.25385 z"
     id="path5181-5-5"
     inkscape:connector-curvature="0"
     sodipodi:nodetypes="ccccc"
     inkscape:label="righttail bot" /><path
     style="fill:#3f4040;fill-opacity:1;stroke:none;stroke-width:0.52634007px;stroke-linecap:butt;stroke-linejoin:miter;stroke-opacity:1"
     d="m 555.51582,152.69149 c 0.13314,0.43177 0.14613,0.95056 0.0584,1.33953 l 5.5918,-0.027 c 0.092,-0.45224 0.23012,-0.8524 0.22652,-1.2859 z"
     id="path5181-5-9"
     inkscape:connector-curvature="0"
     sodipodi:nodetypes="ccccc"
     inkscape:label="righttail top" /><path
     style="fill:#3f4040;fill-opacity:1;stroke:none;stroke-width:0.49123633px;stroke-linecap:butt;stroke-linejoin:miter;stroke-opacity:1"
     d="m 476.95808,152.32742 c 0.11597,0.43177 0.27317,1.11441 0.33719,1.50338 l 5.35387,-0.0972 c 0.0801,-0.45224 0.009,-0.87581 0.006,-1.30931 z"
     id="path5181"
     inkscape:connector-curvature="0"
     sodipodi:nodetypes="ccccc"
     inkscape:label="leftband top" /><path
     style="fill:#3f4040;fill-opacity:1;stroke:none;stroke-width:0.52634007px;stroke-linecap:butt;stroke-linejoin:miter;stroke-opacity:1"
     d="m 477.34932,154.21781 c 0.13314,0.43177 0.27286,0.95056 0.18513,1.33953 l 5.22393,-0.0738 c 0.092,-0.45224 -0.029,-0.8524 -0.0326,-1.2859 z"
     id="path5181-5"
     inkscape:connector-curvature="0"
     sodipodi:nodetypes="ccccc"
     inkscape:label="Leftband bot" /></svg>
