<?xml version="1.0" encoding="UTF-8" standalone="no"?>
<!-- Generator: Adobe Illustrator 19.0.0, SVG Export Plug-In . SVG Version: 6.00 Build 0)  -->

<svg
   xmlns:dc="http://purl.org/dc/elements/1.1/"
   xmlns:cc="http://creativecommons.org/ns#"
   xmlns:rdf="http://www.w3.org/1999/02/22-rdf-syntax-ns#"
   xmlns:svg="http://www.w3.org/2000/svg"
   xmlns="http://www.w3.org/2000/svg"
   xmlns:sodipodi="http://sodipodi.sourceforge.net/DTD/sodipodi-0.dtd"
   xmlns:inkscape="http://www.inkscape.org/namespaces/inkscape"
   version="1.1"
   id="Layer_1"
   x="0px"
   y="0px"
   viewBox="0 0 1000 1000"
   style="enable-background:new 0 0 1000 1000;"
   xml:space="preserve"
   sodipodi:docname="hair fore ponytail1 Auburn.svg"
   inkscape:version="0.92.1 r15371"><metadata
     id="metadata4517"><rdf:RDF><cc:Work
         rdf:about=""><dc:format>image/svg+xml</dc:format><dc:type
           rdf:resource="http://purl.org/dc/dcmitype/StillImage" /><dc:title></dc:title></cc:Work></rdf:RDF></metadata><defs
     id="defs4515"><inkscape:path-effect
       effect="taper_stroke"
       id="path-effect4503"
       is_visible="true"
       stroke_width="0.4"
       attach_start="1e-007"
       end_offset="0.35987584"
       smoothing="0.5"
       jointype="extrapolated"
       miter_limit="100" /><inkscape:path-effect
       effect="taper_stroke"
       id="path-effect4498"
       is_visible="true"
       stroke_width="0.4"
       attach_start="0.2"
       end_offset="0.2"
       smoothing="0.5"
       jointype="extrapolated"
       miter_limit="100" /><inkscape:path-effect
       effect="taper_stroke"
       id="path-effect5074"
       is_visible="true"
       stroke_width="0.5"
       attach_start="0.36262148"
       end_offset="0.36844957"
       smoothing="0.5"
       jointype="extrapolated"
       miter_limit="100" /><inkscape:path-effect
       effect="taper_stroke"
       id="path-effect6797"
       is_visible="true"
       stroke_width="0.4"
       attach_start="0.2"
       end_offset="0.2"
       smoothing="0.5"
       jointype="extrapolated"
       miter_limit="100" /></defs><sodipodi:namedview
     pagecolor="#ffffff"
     bordercolor="#666666"
     borderopacity="1"
     objecttolerance="10"
     gridtolerance="10"
     guidetolerance="10"
     inkscape:pageopacity="0"
     inkscape:pageshadow="2"
     inkscape:window-width="1920"
     inkscape:window-height="1001"
     id="namedview4513"
     showgrid="false"
     inkscape:zoom="3.7760001"
     inkscape:cx="576.29169"
     inkscape:cy="903.04952"
     inkscape:window-x="-9"
     inkscape:window-y="-9"
     inkscape:window-maximized="1"
     inkscape:current-layer="g5078" /><style
     type="text/css"
     id="style4507">
	.st0{fill:#010101;}
	.st1{fill:#F6E0E8;}
</style><g
     id="g5078"
     inkscape:label="Ponytail fore"><path
       sodipodi:nodetypes="csscsc"
       inkscape:connector-curvature="0"
       id="path4491"
       d="m 483.65211,106.02583 c 0,0 2.2805,-4.60066 4.43052,-5.65507 13.94975,-6.8412 32.90726,-7.587941 46.61017,-0.26483 9.60916,5.13533 18.00847,27.27754 18.00847,27.27754 4.22974,-13.75545 7.23798,-50.87011 -29.84828,-54.009354 -24.40835,-2.066096 -38.58874,16.410274 -39.20088,32.651714 z"
       style="fill:#7e543e;fill-opacity:1;stroke:#7b543e;stroke-width:1px;stroke-linecap:butt;stroke-linejoin:miter;stroke-opacity:1"
       inkscape:label="Head hair" /><path
       sodipodi:nodetypes="cc"
       inkscape:original-d="M 552.46719,128.69431 C 561.80523,108.31598 541.25446,74.732889 529.45494,73.571928"
       inkscape:path-effect="#path-effect5074"
       inkscape:connector-curvature="0"
       id="path5072"
       d="m 552.43828,103.5645 c 1.97254,6.53532 2.61808,12.3762 2.0406,17.46579 -0.53857,4.74658 -2.01169,7.66402 -2.01169,7.66402 0,0 1.58787,-2.85774 2.25741,-7.63285 0.71439,-5.0949 0.1906,-11.07039 -1.80779,-17.64194 -1.96019,-6.469978 -5.07045,-12.690829 -8.58212,-17.784034 -2.38948,-3.467722 -4.88026,-6.295466 -7.60738,-8.526693 -1.98164,-1.627868 -3.56616,-2.550217 -5.05202,-3.065257 -1.35916,-0.471123 -2.22035,-0.471608 -2.22035,-0.471608 0,0 0.86064,0.04512 2.18446,0.568451 1.46148,0.577756 2.95234,1.538233 4.88461,3.209602 2.6464,2.298477 5.01625,5.115516 7.39904,8.569323 3.48195,5.050105 6.57183,11.230615 8.51523,17.645196 z"
       style="fill:#000000;fill-rule:nonzero;stroke:none;stroke-width:1px;stroke-linecap:butt;stroke-linejoin:miter;stroke-opacity:1"
       inkscape:label="Ponytail fore shadow" /><path
       style="display:inline;fill:#000000;fill-rule:nonzero;stroke:none;stroke-width:1px;stroke-linecap:butt;stroke-linejoin:miter;stroke-opacity:1"
       d="m 484.10071,104.94835 c -0.32714,0.48261 -0.4486,1.07748 -0.4486,1.07748 0,0 0.46449,-0.38806 0.7797,-0.85303 0.82786,-1.22122 1.72364,-2.23221 2.68076,-3.05403 8.66585,-7.440766 34.33345,-10.10241 48.79539,-0.64673 7.58919,4.96206 12.17085,15.98596 14.77144,22.96985 0.80407,2.15939 1.78779,4.25242 1.78779,4.25242 0,0 -0.60852,-2.23177 -1.41294,-4.392 -2.60592,-6.99821 -7.17373,-18.09546 -14.92739,-23.16505 -14.67042,-9.591998 -40.35198,-6.983434 -49.27487,0.67803 -0.98656,0.84709 -1.90574,1.88578 -2.75128,3.13306 z"
       id="path4496"
       inkscape:connector-curvature="0"
       inkscape:path-effect="#path-effect4498"
       inkscape:original-d="m 483.65211,106.02583 c 1.00113,-1.67519 2.11537,-3.01573 3.33017,-4.0588 8.79437,-7.551115 34.46895,-10.186219 49.03513,-0.66238 9.58928,6.26978 14.33999,21.98449 16.44978,27.38966"
       sodipodi:nodetypes="cssc"
       inkscape:label="fore headline trace" /></g></svg>