<?xml version="1.0" encoding="UTF-8" standalone="no"?>
<!-- Generator: Adobe Illustrator 19.0.0, SVG Export Plug-In . SVG Version: 6.00 Build 0)  -->

<svg
   xmlns:dc="http://purl.org/dc/elements/1.1/"
   xmlns:cc="http://creativecommons.org/ns#"
   xmlns:rdf="http://www.w3.org/1999/02/22-rdf-syntax-ns#"
   xmlns:svg="http://www.w3.org/2000/svg"
   xmlns="http://www.w3.org/2000/svg"
   xmlns:sodipodi="http://sodipodi.sourceforge.net/DTD/sodipodi-0.dtd"
   xmlns:inkscape="http://www.inkscape.org/namespaces/inkscape"
   version="1.1"
   id="Layer_1"
   x="0px"
   y="0px"
   viewBox="0 0 1000 1000"
   style="enable-background:new 0 0 1000 1000;"
   xml:space="preserve"
   sodipodi:docname="hair fore neat Auburn.svg"
   inkscape:version="0.92.1 r15371"><metadata
     id="metadata4493"><rdf:RDF><cc:Work
         rdf:about=""><dc:format>image/svg+xml</dc:format><dc:type
           rdf:resource="http://purl.org/dc/dcmitype/StillImage" /><dc:title></dc:title></cc:Work></rdf:RDF></metadata><defs
     id="defs4491"><inkscape:path-effect
       effect="taper_stroke"
       id="path-effect5619"
       is_visible="true"
       stroke_width="0.4"
       attach_start="0.2"
       end_offset="0.2"
       smoothing="0.5"
       jointype="extrapolated"
       miter_limit="100" /></defs><sodipodi:namedview
     pagecolor="#ffffff"
     bordercolor="#666666"
     borderopacity="1"
     objecttolerance="10"
     gridtolerance="10"
     guidetolerance="10"
     inkscape:pageopacity="0"
     inkscape:pageshadow="2"
     inkscape:window-width="1920"
     inkscape:window-height="1001"
     id="namedview4489"
     showgrid="false"
     inkscape:zoom="1.3350176"
     inkscape:cx="511.72818"
     inkscape:cy="832.87882"
     inkscape:window-x="-9"
     inkscape:window-y="-9"
     inkscape:window-maximized="1"
     inkscape:current-layer="g5623" /><style
     type="text/css"
     id="style4483">
	.st0{fill:#010101;}
	.st1{fill:#F6E0E8;}
</style><g
     id="g5623"
     inkscape:label="Fore Group"><path
       inkscape:label="Hair Fore"
       style="fill:#7e543e;fill-opacity:1;stroke:#7e543e;stroke-opacity:1"
       d="m 482.27586,105.70386 c 5.1,7.6 15,14 52.5,7.3 18.7,5.2 2.6,37.9 1.1,61 -1.3,19.3 -7.8,36.4 -18.9,51.5 17.1,-12.2 36.2,-10.4 50.8,-41.2 41.1,-23.4 -1.2,-125.900004 -49.9,-115.400004 -33,7.1 -33.1,19.4 -35.6,36.800004 z"
       class="st0"
       id="Hair_Black"
       inkscape:connector-curvature="0" /><path
       inkscape:label="browline"
       sodipodi:nodetypes="ccc"
       inkscape:original-d="m 482.27586,105.70386 c 11.77648,15.31125 33.17919,8.96349 52.5,7.3 18.83011,5.58222 2.11266,40.61321 1.17213,58.54264"
       inkscape:path-effect="#path-effect5619"
       inkscape:connector-curvature="0"
       id="path5617"
       d="m 490.49382,112.32397 c -2.45009,-1.24433 -4.41686,-2.75353 -5.93992,-4.18824 -1.45539,-1.37097 -2.27804,-2.43187 -2.27804,-2.43187 0,0 0.74023,1.11988 2.13729,2.57399 1.4512,1.51046 3.41378,3.13941 5.89949,4.40273 12.21711,6.20693 29.02084,1.85834 44.44255,0.52581 7.40189,2.21463 9.19441,9.01123 8.63915,17.63948 -0.55615,8.64228 -3.51328,19.04763 -5.59444,28.21893 -0.74964,3.30075 -1.26213,5.96981 -1.56596,8.54812 -0.27736,2.35371 -0.28595,3.93358 -0.28595,3.93358 0,0 0.10873,-1.57605 0.48387,-3.906 0.43513,-2.70257 0.97695,-5.04179 1.75812,-8.48718 2.0775,-9.15514 5.04288,-19.5695 5.60354,-28.28176 0.56066,-8.71227 -1.32896,-15.79697 -8.96081,-18.05945 a 15.194152,15.194152 0 0 0 -0.0364,-0.0107 127.37148,127.37148 0 0 0 -0.0376,0.003 c -15.48124,1.33291 -32.23815,5.62957 -44.26488,-0.48063 z"
       style="fill:#000000;fill-rule:nonzero;stroke:none;stroke-width:1px;stroke-linecap:butt;stroke-linejoin:miter;stroke-opacity:1" /></g></svg>