<?xml version="1.0" encoding="UTF-8" standalone="no"?>
<!-- Generator: Adobe Illustrator 19.0.0, SVG Export Plug-In . SVG Version: 6.00 Build 0)  -->

<svg
   xmlns:dc="http://purl.org/dc/elements/1.1/"
   xmlns:cc="http://creativecommons.org/ns#"
   xmlns:rdf="http://www.w3.org/1999/02/22-rdf-syntax-ns#"
   xmlns:svg="http://www.w3.org/2000/svg"
   xmlns="http://www.w3.org/2000/svg"
   xmlns:sodipodi="http://sodipodi.sourceforge.net/DTD/sodipodi-0.dtd"
   xmlns:inkscape="http://www.inkscape.org/namespaces/inkscape"
   version="1.1"
   id="Layer_1"
   x="0px"
   y="0px"
   viewBox="0 0 1000 1000"
   style="enable-background:new 0 0 1000 1000;"
   xml:space="preserve"
   sodipodi:docname="hair fore bun Auburn.svg"
   inkscape:version="0.92.1 r15371"><metadata
     id="metadata4517"><rdf:RDF><cc:Work
         rdf:about=""><dc:format>image/svg+xml</dc:format><dc:type
           rdf:resource="http://purl.org/dc/dcmitype/StillImage" /><dc:title></dc:title></cc:Work></rdf:RDF></metadata><defs
     id="defs4515"><inkscape:path-effect
       effect="taper_stroke"
       id="path-effect4490"
       is_visible="true"
       stroke_width="0.4"
       attach_start="0.2"
       end_offset="0.2"
       smoothing="0.5"
       jointype="extrapolated"
       miter_limit="100" /><inkscape:path-effect
       effect="taper_stroke"
       id="path-effect6797"
       is_visible="true"
       stroke_width="0.4"
       attach_start="0.2"
       end_offset="0.2"
       smoothing="0.5"
       jointype="extrapolated"
       miter_limit="100" /></defs><sodipodi:namedview
     pagecolor="#ffffff"
     bordercolor="#666666"
     borderopacity="1"
     objecttolerance="10"
     gridtolerance="10"
     guidetolerance="10"
     inkscape:pageopacity="0"
     inkscape:pageshadow="2"
     inkscape:window-width="1920"
     inkscape:window-height="1001"
     id="namedview4513"
     showgrid="false"
     inkscape:zoom="3.776"
     inkscape:cx="537.30832"
     inkscape:cy="887.15071"
     inkscape:window-x="-9"
     inkscape:window-y="-9"
     inkscape:window-maximized="1"
     inkscape:current-layer="g5044" /><style
     type="text/css"
     id="style4507">
	.st0{fill:#010101;}
	.st1{fill:#F6E0E8;}
</style><g
     id="g5044"
     inkscape:label="Bun"
     style="fill:#d18cbc;fill-opacity:1;stroke:#d18cbc;stroke-opacity:1"><path
       sodipodi:nodetypes="cccc"
       inkscape:connector-curvature="0"
       id="path4511"
       d="m 485.96985,95.342165 c 7.80854,-25.21599 36.91694,-28.417895 54.28368,-23.016905 14.50296,5.90143 14.35898,31.37351 13.87616,40.15388 C 536.05773,96.452577 520.6943,78.063675 485.96985,95.342165 Z"
       style="display:inline;fill:#7e543e;fill-opacity:1;stroke:#7e543e;stroke-width:0.99999994px;stroke-linecap:butt;stroke-linejoin:miter;stroke-opacity:1" /><ellipse
       transform="matrix(0.86016861,0.51000977,-0.6999274,0.714214,0,0)"
       ry="12.996543"
       rx="21.361792"
       cy="-224.55019"
       cx="453.68372"
       id="path4515"
       style="display:inline;fill:#7e543e;fill-opacity:1;stroke:#7e543e;stroke-width:1.00200033;stroke-opacity:1" /><path
       sodipodi:nodetypes="cscc"
       inkscape:connector-curvature="0"
       id="path4525"
       d="m 497.93097,86.981897 c 3.70896,0.56954 10.07758,-0.42153 5.33575,1.12691 -7.87994,2.57317 -4.87249,12.818833 -4.89649,13.070773 0,0 -5.78438,-8.843903 -0.43926,-14.197683 z"
       style="display:inline;fill:#7e543e;fill-opacity:1;stroke:#7e543e;stroke-width:0.99999994px;stroke-linecap:butt;stroke-linejoin:miter;stroke-opacity:1" /><path
       style="fill:#000000;fill-rule:nonzero;stroke:none;stroke-width:1px;stroke-linecap:butt;stroke-linejoin:miter;stroke-opacity:1"
       d="m 487.10817,95.200198 c -1.0153,0.451335 -1.94936,1.085426 -1.94936,1.085426 0,0 1.09654,-0.268579 2.11184,-0.719914 l 7.81731,-3.475052 c -0.31495,4.952256 1.64647,7.890571 3.4176,10.363992 a 119.73769,119.73769 0 0 0 0.4059,0.56339 123.08751,123.08751 0 0 1 -0.0436,-0.69186 c -0.63017,-10.456794 0.73947,-9.961529 1.79446,-11.806305 4.69195,-0.870699 10.23736,-1.828438 14.2086,-1.102603 a 12.606697,12.606697 0 0 1 0.007,0.0013 43.756677,43.756677 0 0 1 0.007,7.87e-4 c 13.81455,1.496165 23.19515,9.169714 29.86753,15.713902 a 120.19756,120.19756 0 0 1 0.0104,0.0102 33.889849,33.889849 0 0 1 0.0117,0.009 c 3.30785,2.41583 4.87104,4.47706 7.52131,6.73679 1.08365,0.92395 2.34844,1.57349 2.34844,1.57349 0,0 -1.03034,-0.97528 -2.08891,-1.87787 -2.61465,-2.22935 -4.19445,-4.30631 -7.53319,-6.74686 -6.69287,-6.562696 -16.1572,-14.304098 -30.08696,-15.815063 -4.12232,-0.751095 -9.72715,0.246045 -14.43868,1.121262 a 795.95364,795.95364 0 0 0 -0.0949,0.01764 4.0195938,4.0195938 0 0 1 -0.0441,0.08327 c -0.94602,1.735374 -2.46176,1.470151 -1.92891,11.410972 -1.67641,-2.39159 -3.30461,-5.198878 -2.9178,-9.866829 a 17.745867,17.745867 0 0 1 0.0312,-0.337883 z"
       id="path4488"
       inkscape:connector-curvature="0"
       inkscape:label="fore browline trace"
       inkscape:path-effect="#path-effect4490"
       inkscape:original-d="m 485.15881,96.285624 10.15301,-4.513349 c -0.42247,5.098323 1.54843,8.041134 3.35635,10.565935 -0.64062,-10.630309 0.85118,-10.137567 1.86528,-11.997835 4.71282,-0.875457 10.31323,-1.861928 14.37338,-1.119844 13.87773,1.503006 23.30254,9.214858 29.98604,15.769949 4.15914,3.03756 5.57531,5.51289 9.75179,8.47179"
       sodipodi:nodetypes="ccccccc" /></g><path
     style="fill:#000000;fill-rule:nonzero;stroke:none;stroke-width:1px;stroke-linecap:butt;stroke-linejoin:miter;stroke-opacity:1"
     d="m 549.50921,80.88552 c 0.8893,1.094251 1.50246,2.102418 1.87416,3.102795 0.34381,0.925316 0.38838,1.604265 0.38838,1.604265 0,0 0.0582,-0.678444 -0.19897,-1.663858 -0.27243,-1.043954 -0.84047,-2.185466 -1.75389,-3.296375 -3.82557,-4.679469 -11.89482,-8.478135 -17.87935,-10.192416 -1.30196,-0.373989 -2.4395,-0.601153 -3.46955,-0.70469 -0.96214,-0.09671 -1.60427,-0.06005 -1.60427,-0.06005 0,0 0.63991,0.06373 1.57401,0.25752 1.09538,0.227253 2.00333,0.49576 3.38965,0.891759 5.92483,1.697175 13.9626,5.514115 17.67983,10.061054 z"
     id="path6795"
     inkscape:connector-curvature="0"
     sodipodi:nodetypes="cc"
     inkscape:path-effect="#path-effect6797"
     inkscape:original-d="M 551.77175,85.59258 C 551.42564,77.249141 533.2765,69.942303 526.86572,69.675187"
     inkscape:label="fore hairline trace" /></svg>