<?xml version="1.0" encoding="UTF-8" standalone="no"?>
<!-- Generator: Adobe Illustrator 19.0.0, SVG Export Plug-In . SVG Version: 6.00 Build 0)  -->

<svg
   xmlns:dc="http://purl.org/dc/elements/1.1/"
   xmlns:cc="http://creativecommons.org/ns#"
   xmlns:rdf="http://www.w3.org/1999/02/22-rdf-syntax-ns#"
   xmlns:svg="http://www.w3.org/2000/svg"
   xmlns="http://www.w3.org/2000/svg"
   xmlns:sodipodi="http://sodipodi.sourceforge.net/DTD/sodipodi-0.dtd"
   xmlns:inkscape="http://www.inkscape.org/namespaces/inkscape"
   version="1.1"
   id="Layer_1"
   x="0px"
   y="0px"
   viewBox="0 0 1000 1000"
   style="enable-background:new 0 0 1000 1000;"
   xml:space="preserve"
   sodipodi:docname="hair fore twintail2 Auburn.svg"
   inkscape:version="0.92.1 r15371"><metadata
     id="metadata4517"><rdf:RDF><cc:Work
         rdf:about=""><dc:format>image/svg+xml</dc:format><dc:type
           rdf:resource="http://purl.org/dc/dcmitype/StillImage" /><dc:title></dc:title></cc:Work></rdf:RDF></metadata><defs
     id="defs4515"><inkscape:path-effect
       effect="taper_stroke"
       id="path-effect6797"
       is_visible="true"
       stroke_width="0.4"
       attach_start="0.2"
       end_offset="0.2"
       smoothing="0.5"
       jointype="extrapolated"
       miter_limit="100" /><inkscape:path-effect
       effect="taper_stroke"
       id="path-effect5077"
       is_visible="true"
       stroke_width="0.5"
       attach_start="0.3"
       end_offset="0.3"
       smoothing="0.5"
       jointype="extrapolated"
       miter_limit="100" /><inkscape:path-effect
       effect="taper_stroke"
       id="path-effect5077-5"
       is_visible="true"
       stroke_width="0.5"
       attach_start="0.3"
       end_offset="0.3"
       smoothing="0.5"
       jointype="extrapolated"
       miter_limit="100" /></defs><sodipodi:namedview
     pagecolor="#ffffff"
     bordercolor="#666666"
     borderopacity="1"
     objecttolerance="10"
     gridtolerance="10"
     guidetolerance="10"
     inkscape:pageopacity="0"
     inkscape:pageshadow="2"
     inkscape:window-width="1920"
     inkscape:window-height="1001"
     id="namedview4513"
     showgrid="false"
     inkscape:zoom="1.888"
     inkscape:cx="373.33275"
     inkscape:cy="836.34027"
     inkscape:window-x="-9"
     inkscape:window-y="-9"
     inkscape:window-maximized="1"
     inkscape:current-layer="Layer_1" /><style
     type="text/css"
     id="style4507">
	.st0{fill:#010101;}
	.st1{fill:#F6E0E8;}
</style><path
     style="fill:#7e543e;fill-opacity:1;stroke:#000000;stroke-width:0.40000001;stroke-linecap:butt;stroke-linejoin:round;stroke-miterlimit:4;stroke-dasharray:none;stroke-opacity:0.94117647"
     d="m 527.02588,73.030554 c -12.61622,-1.11489 -32.27568,6.492137 -39.61182,16.033899 -6.00678,7.812733 -20.28631,25.228797 -20.21289,49.853517 0.0535,17.94247 4.28765,23.90364 11.18164,40.08984 4.80123,11.27269 9.80303,35.05536 9.4961,39.73438 3.32799,-16.78098 -7.21649,-44.4024 -6.26172,-66.79102 -1.87601,-12.70751 -2.0723,-37.12146 0.97851,-39.71094 0.1771,-3.79263 19.41383,-15.441797 36.14338,-16.868871 6.27318,-0.535119 16.4785,12.692251 18.50701,9.409891 L 548.37354,87.044226 C 544.85642,81.1046 534.63326,73.158641 527.02588,73.030554 Z"
     id="path5079-2"
     inkscape:connector-curvature="0"
     sodipodi:nodetypes="cscscccsccc" /><path
     style="fill:#7e543e;fill-opacity:1;stroke:#000000;stroke-width:0.40000001;stroke-linecap:butt;stroke-linejoin:miter;stroke-miterlimit:4;stroke-dasharray:none;stroke-opacity:1"
     d="m 537.0868,104.79162 c -1.38737,2.18151 10.06948,16.49747 13.0454,22.33001 4.25631,8.34202 3.98983,10.38713 4.74428,28.07849 0.95476,22.38862 -11.83705,49.63451 -8.50906,66.41549 -0.30693,-4.67902 4.69523,-28.4607 9.49646,-39.73337 6.89399,-16.1862 14.16902,-22.09047 11.44625,-39.82523 -1.257,-8.18751 -5.4816,-13.3233 -7.45129,-20.65662 -4.40291,-16.39238 -9.12037,-31.883028 -11.4853,-34.356164 z"
     id="path5079"
     inkscape:connector-curvature="0"
     sodipodi:nodetypes="ssscssscs" /></svg>