<?xml version="1.0" encoding="UTF-8" standalone="no"?>
<!-- Generator: Adobe Illustrator 19.0.0, SVG Export Plug-In . SVG Version: 6.00 Build 0)  -->

<svg
   xmlns:dc="http://purl.org/dc/elements/1.1/"
   xmlns:cc="http://creativecommons.org/ns#"
   xmlns:rdf="http://www.w3.org/1999/02/22-rdf-syntax-ns#"
   xmlns:svg="http://www.w3.org/2000/svg"
   xmlns="http://www.w3.org/2000/svg"
   xmlns:sodipodi="http://sodipodi.sourceforge.net/DTD/sodipodi-0.dtd"
   xmlns:inkscape="http://www.inkscape.org/namespaces/inkscape"
   version="1.1"
   id="Layer_1"
   x="0px"
   y="0px"
   viewBox="0 0 1000 1000"
   style="enable-background:new 0 0 1000 1000;"
   xml:space="preserve"
   sodipodi:docname="hair bun Auburn.svg"
   inkscape:version="0.92.1 r15371"><metadata
     id="metadata4517"><rdf:RDF><cc:Work
         rdf:about=""><dc:format>image/svg+xml</dc:format><dc:type
           rdf:resource="http://purl.org/dc/dcmitype/StillImage" /><dc:title></dc:title></cc:Work></rdf:RDF></metadata><defs
     id="defs4515"><inkscape:path-effect
       effect="taper_stroke"
       id="path-effect4514"
       is_visible="true"
       stroke_width="0.4"
       attach_start="0.2"
       end_offset="0.011213872"
       smoothing="0.5"
       jointype="extrapolated"
       miter_limit="100" /><inkscape:path-effect
       effect="taper_stroke"
       id="path-effect4510"
       is_visible="true"
       stroke_width="0.4"
       attach_start="0.2"
       end_offset="1e-007"
       smoothing="0.5"
       jointype="extrapolated"
       miter_limit="100" /><inkscape:path-effect
       effect="taper_stroke"
       id="path-effect5074"
       is_visible="true"
       stroke_width="0.4"
       attach_start="1e-007"
       end_offset="1e-007"
       smoothing="0.5"
       jointype="extrapolated"
       miter_limit="100" /><inkscape:path-effect
       effect="taper_stroke"
       id="path-effect6797"
       is_visible="true"
       stroke_width="0.4"
       attach_start="0.2"
       end_offset="0.2"
       smoothing="0.5"
       jointype="extrapolated"
       miter_limit="100" /></defs><sodipodi:namedview
     pagecolor="#ffffff"
     bordercolor="#666666"
     borderopacity="1"
     objecttolerance="10"
     gridtolerance="10"
     guidetolerance="10"
     inkscape:pageopacity="0"
     inkscape:pageshadow="2"
     inkscape:window-width="1920"
     inkscape:window-height="1001"
     id="namedview4513"
     showgrid="false"
     inkscape:zoom="1.3989928"
     inkscape:cx="505.04375"
     inkscape:cy="857.54816"
     inkscape:window-x="-9"
     inkscape:window-y="-9"
     inkscape:window-maximized="1"
     inkscape:current-layer="layer2" /><style
     type="text/css"
     id="style4507">
	.st0{fill:#010101;}
	.st1{fill:#F6E0E8;}
</style><g
     inkscape:groupmode="layer"
     id="layer2"
     inkscape:label="Ponytail aft"><path
       style="fill:#7e543e;fill-opacity:1;stroke:#7e543e;stroke-width:1px;stroke-linecap:butt;stroke-linejoin:miter;stroke-opacity:1"
       d="m 529.45494,73.571928 c 0,0 8.74235,-12.748449 14.51877,-13.951553 8.10002,-1.687061 32.46456,6.919358 35.20803,19.995291 6.42226,30.609794 -10.76647,59.168044 -11.70704,86.373924 0.24608,30.50149 0.67677,30.22519 13.02088,15.99918 -11.80656,51.89131 -45.28929,-7.22843 -37.30232,-26.82937 2.73274,-6.70647 1.15678,-58.98519 -2.02247,-63.809481 L 529.45492,73.571928 Z"
       id="path5070"
       inkscape:connector-curvature="0"
       sodipodi:nodetypes="cssccsccc"
       inkscape:label="Hanging hair" /><path
       style="fill:#000000;fill-rule:nonzero;stroke:none;stroke-width:1px;stroke-linecap:butt;stroke-linejoin:miter;stroke-opacity:1"
       d="m 542.17734,169.29097 c -0.0111,0.19969 0.0316,0.40343 0.0747,0.55234 0.0354,0.14052 0.0815,0.23048 0.0815,0.23048 0,0 0.055,-0.0848 0.10547,-0.22023 0.059,-0.14265 0.1247,-0.34005 0.13759,-0.53855 0.11669,-1.93838 0.47703,-7.06381 1.10959,-9.74682 2.18256,-4.71867 4.52514,-11.82632 6.30724,-18.05894 1.78442,-6.24072 3.02089,-11.48005 2.92923,-12.83547 l -0.0393,0.003 c -0.018,-0.0509 -0.1677,-0.0628 -0.1677,-0.0628 0,0 -0.14259,0.0482 -0.15284,0.0845 l -0.0393,0.003 c 0.0676,0.99985 -1.1337,6.46966 -2.91473,12.69851 -1.78102,6.22885 -4.12777,13.34082 -6.29412,18.01919 a 46.420776,46.420776 0 0 1 -0.008,0.0182 14.306489,14.306489 0 0 0 -0.005,0.0197 c -0.65391,2.75552 -1.00691,7.885 -1.12429,9.83464 z"
       id="path4512"
       inkscape:connector-curvature="0"
       sodipodi:nodetypes="ccc"
       inkscape:path-effect="#path-effect4514"
       inkscape:original-d="m 542.33341,170.07672 c 0,0 0.35698,-7.17851 1.16282,-10.57421 4.40067,-9.50352 9.50047,-28.8936 9.21947,-30.88888"
       inkscape:label="Ponytail Neckline Trace" /></g></svg>
